<svg xmlns="http://www.w3.org/2000/svg" viewBox="0 0 1927 672.27"><defs><style>.cls-1{fill:#cc5c1b;}</style></defs><title>Asset 2</title><g id="Layer_2" data-name="Layer 2"><g id="Layer_1-2" data-name="Layer 1"><path class="cls-1" d="M981,672.27c0-141,.1-429.33,0-434.47H934s.5-24.4.1-36.1c-.3-11-17.3-28-31-28.3,4.7-4.3,0-20-9.7-26.3,1.3-5.7-3.5-20-13-22.3.9-8.8-1.8-23.6-6.7-25.7-.9-20-6-27-10-27.3,1-11.9-6.1-16.3-10-18.3-2.3-8.4-6.3-50.7-13.3-53.5-8.4,1.5-16.1,43.5-19.5,53a3,3,0,0,1-.4.8c-5.8,1.3-10.8,2.3-11,16.3-5.5,2.3-11.2,6.7-11.5,28-8.1,6-9.1,22-7.5,26.3-13.6,2.4-13.2,18.5-14,19.2-10.9,5.2-12.6,23.9-9.8,28.2-2.4,4.8-23.4.3-24,40.5v24h23.2V349.5l-56.2.4,1.8-185.5H541.9v42H439v25H414.1v65.3l-34.2,1c-2.6-.4-.2-48.7-1.1-50.5-.9-29.6-17.8-53.4-18.2-53.5,0,0-18,16.7-17.6,52.4H242.5s-.1-34.6-.1-35c-7.2-21.4-14.8-19.5-15.2-20.7-1.6-4.8-1.2-29.2-1.8-34.4-.5-4.5-1-9.5-5.1-12.5l-.4-.3c-1-.2-7.3-.2-7.5,13.1-.1.9-1.7,29.1-3.2,33.8-.6,1.8-11.9,2.3-17.3,20.9-.2.5.7,18.8-.9,19.2v.2H169.8v11.2h11.7v78.1l-23.2-.5c-1.1,1-1.8,54.1-1.8,54.1l-23,.6L133,236.8h13.4V221.4H135.7V190.2h7.9c-1-2.1-23-23.9-26.5-26.5,0,0-3.9-22.7-9.6-28-4.1-.4-8.3,27.2-8.3,27.2s-30,27.2-30,27.7H80.3v29.6h-11v20.7h7.8l1.8,50.6.2,26.6v43.6H63.7s-2.6-59.6-1.8-69.6H50.3c-1.2.7-22.3,12.8-22.3,14l17.9,12.4h.5V361H25v50.9H0V672.27Z"/><path class="cls-1" d="M1925.55,401.85H1927c0-89.32,0-161.5,0-164h-46.9s.5-24.4.1-36.1c-.3-11-17.3-28-31-28.3,4.7-4.3,0-20-9.7-26.3,1.3-5.7-3.5-20-13-22.3.9-8.8-1.8-23.6-6.7-25.7-.9-20-6-27-10-27.3,1-11.9-6.1-16.3-10-18.3-2.3-8.4-6.3-50.7-13.3-53.5-8.4,1.5-16.1,43.5-19.5,53a3,3,0,0,1-.4.8c-5.8,1.3-10.8,2.3-11,16.3-5.5,2.3-11.2,6.7-11.5,28-8.1,6-9.1,22-7.5,26.3-13.6,2.4-13.2,18.5-14,19.2-10.9,5.2-12.6,23.9-9.8,28.2-2.4,4.8-23.4.3-24,40.5v24H1712V349.5l-56.2.4,1.8-185.5H1487.8v42H1385v25h-25v65.3l-34.2,1c-2.6-.4-.2-48.7-1.1-50.5-.9-29.6-17.8-53.4-18.2-53.5,0,0-18,16.7-17.7,52.4H1188.5s-.1-34.6-.1-35c-7.2-21.4-14.8-19.5-15.2-20.7-1.6-4.8-1.2-29.2-1.8-34.4-.5-4.5-1-9.5-5.1-12.5l-.4-.3c-1-.2-7.3-.2-7.5,13.1-.1.9-1.7,29.1-3.2,33.8-.6,1.8-11.9,2.3-17.3,20.9-.2.5.7,18.8-.9,19.2v.2h-21.2v11.2h11.7v78.1l-23.2-.5c-1.1,1-1.8,54.1-1.8,54.1l-23,.6-.5-137.1h13.4V221.4h-10.7V190.2h7.9c-1-2.1-23-23.9-26.5-26.5,0,0-3.9-22.7-9.6-28-4.1-.4-8.3,27.2-8.3,27.2s-30,27.2-30,27.7h11.1v29.6h-10.9v20.7h7.8l1.8,50.6.2,26.6v43.6h-15.3s-2.6-59.6-1.8-69.6H996.4c-1.2.7-22.3,12.8-22.3,14L992,318.5h.5V361H971v50.9H946V672.27h979.55Z"/></g></g></svg>