<svg xmlns="http://www.w3.org/2000/svg" viewBox="0 0 1932.8 655.8"><defs><style>.cls-1{fill:#ec821b;}</style></defs><title>Asset 3</title><g id="Layer_2" data-name="Layer 2"><g id="Layer_1-2" data-name="Layer 1"><path class="cls-1" d="M1930.4,116c0-1.1-.1-2.2,0-3.4,0-.4.4-.8.7-1.3v-.6c-1.3-3.8-.2-7.9-1-11.7l-1.8-2.4c-1.2,2.5-2.1,4.8-1.9,7.2a13.17,13.17,0,0,1-1.4,7c.3.5,1,1.2.8,1.5-.7,1.5.7,2.8.2,4.2l-.2.1c-.6.6-1.3,1.2-1.9,1.8h.1c-.9,1.3-1.7,2.5-2.6,3.8l-1.7,1.6-.7.7a10.76,10.76,0,0,1-1.8,2.4,18.06,18.06,0,0,0-6.2,10.8,13.59,13.59,0,0,1-1.1,2.8c-.2.4-.5.7-.5,1.1-.3,3.1-.6,6.2-1,9.7-2.5,1-5.2,2.6-8.3,3.1-1.6.7-3.3,1.5-4.9,2.2-3.7,1.5-3.8,1.9-1.9,5.1a14.29,14.29,0,0,1,1.4,2c1.3,3.1,3.8,4.1,6.9,4.2a4.9,4.9,0,0,1,5.1,4,9.59,9.59,0,0,0,2.7,4.4c2,1.8,2.4,4.1,2.4,6.4,0,6.1-.2,12.2-.5,18.3,0,.9-.6,2.4-1.2,2.6-2.7.8-2.6,3.5-3.7,5.3-.4.7.3,2.1.6,3.5-.5,0-1.1.2-1.3,0a6.57,6.57,0,0,1-1.2-1.7c-.1-.2.1-.6.2-.9.5-3.5-1.3-5-4.6-3.7-1.3,1.7-.4,3.5-.3,5.3-2,.2-2.5-.2-2.3-1.7.2-1.2.3-2.4.5-3.6a10.88,10.88,0,0,1-2.3-6.7c-.1-2.7,0-5.3,0-8.3-2.8,1-2.6,3.9-4.8,4.6.3,1.3.6,2.3.9,3.6-.9-.1-1.7,0-2.1-.3-1.4-1.1.2-2.2.2-3.4-.1-.2-.1-.4-.2-.5-2.7-2.1-2.8-4.7-1.6-7.6l.3-1.5a6.21,6.21,0,0,1,.3-1c-.2-1.2-.2-2.5-1.8-2.7l-1.2-.5c-.1-.5-.2-.9-.3-1.4-.1-1.4-.3-2.8-.4-4.2-2.5-3.4-5-6.8-7.4-10.3a6.6,6.6,0,0,1-.6-2.7,6.73,6.73,0,0,1-2.3-1.3,5,5,0,0,1-.4-2.7c.1-3,.2-6,.3-8.9l-.5-5.3a.6.6,0,0,1-.1-.4l-.3-2-.3-1.8a75.34,75.34,0,0,0-3.7-10c-1.5-3-3.7-5.6-5.5-8.5a23.93,23.93,0,0,1-1.3-2.1c-.8-1.1-1.7-2.2-2.5-3.3l-.8-1.2v.1c-3-2.8-6-5.7-9-8.5-2.7-2.4-5.5-4.7-8.2-7l-4.4-2.7-8.1-4c-2-.1-3.3-1.6-4.9-2.5l-.5-.5V88.8c0-.6-.1-1.3-.1-1.9v-.1l-1.3-.5-2.5-.8c-.1-.2-.3-.3-.5-.5a12.1,12.1,0,0,0-.1-1.9,1.69,1.69,0,0,1-.2-.5h.1l-8.1-1.7c-.1-2.2-1.9-2.6-3.9-2.5a6.48,6.48,0,0,1-6.4-3.4c-3-4.9-6.1-9.8-8.9-14.9a16.9,16.9,0,0,0-7.4-7.1c-1.3-.6-2.5-1.4-3.8-2.1-.2-1.3-.5-2.6-.7-3.9a3.3,3.3,0,0,1,1.6-3.4c2.8-1.8,3.7-4.8,5-7.6l4-1.4c0-1.5-.2-2.9-1.8-3.7a2.4,2.4,0,0,1-1-1c-.4-2.6-2.3-2.6-3.7-2.4l-4.2-4.5,2.1-1.2a32,32,0,0,0-2.2-2.7c-.4-.4-1.1-.6-1.5-1-.5-.6-1-1.4,0-2.1a1.41,1.41,0,0,0,.5-1.8l-.1-.1c-.8-.3-1-.7,0-1l.2-.1a11.41,11.41,0,0,1,1.1-1.1l.1-.1c.7-2.5.7-4.8-1.9-6.3-.3-.2,0-1.2,0-1.8-.8-1.3-3.1-1.5-2.6-3.7l-.5.1c.2,1.4-.3,2.4-1.9,2.5-.2.2-.3.4-.5.5a21.78,21.78,0,0,1,.6,2.2c-1.6,1.1-3,2.5-2.5,4.8a7.14,7.14,0,0,0,1.4,3.2c.8,1,.2,1.4-.3,2.1l1.9,1.6c-1.2,1.4-2.4,2.7-3.7,4.1l1.9,3.2c-.8.8-1.4,1.8-2.3,2.1-1.9.7-3.6,1.4-4.1,3.7-.1.4-1,.5-1.6.8-1.4.6-2.8,1.3-2.8,3.2l1.9,1.3v-.1c.2,0,.6-.1.6,0,.7,2.2,3.4,2.8,4.2,5.1a11.05,11.05,0,0,0,2.7,3.7c2.4,2.4,2.4,3.2-.5,5.2l1.3,1.7a22.11,22.11,0,0,0-13.6,11.8c-2.8,4.2-5.6,8.5-8.5,12.6-1,1.4-2.7,2.4-4.1,3.6l-1.6,1.1-6.8,1.9-.1.1a2.63,2.63,0,0,1-2.5,2.6c-1.1.1-2.1.7-3.2.8-.5,0-1-.6-1.6-.9l-.1-.1c-.6-.4-1.1-.8-1.7-1.2h-.2l-.1-.2-.4-.4h-.2v-.2l-.5-.5h-.2v-.2c-.1-.2-.3-.3-.5-.5h-.1v-.2l-.5-.5-.2-.1c-.2-.2-.4-.3-.6-.5h-.1l-.6-.6a3.4,3.4,0,0,0-.6-.6v-.1l-.3-.8a20.28,20.28,0,0,1,1.3-1.8l-1.2-1.5c.5-1,1.1-2,1.8-3.3-2.2-1.1-1.5-3-1.4-4.8l.3-2.4c-.1-.5-.2-1.1-.4-1.9-1-1.1-2.4-.2-3.8,0,0,1.7,0,3.5.1,5.2a4.67,4.67,0,0,0,.3,1.7l-2,1.6c.4,1,.7,1.8,1,2.7,1.6,1-.1,1.8-.2,2.8.4.6.9,1.3,1.3,1.9l-.4.7-.1.1-1.2.5a18.13,18.13,0,0,1-4.3,6.3,75.59,75.59,0,0,0-7.1,7.8c-1.2,1.5-1.7,3.5-2.4,5.3-1.6,3.9-3,7.9-4.9,11.6-1.5,3-4.4,4.2-7.7,4.4-.4.5-.8,1.4-1.3,1.5-3,.6-4.8,2.9-7,4.7-1.2,1-2.3,2.2-3.4,3.2a1.75,1.75,0,0,0,.4.5c2.4,2.3,2.3,2.2.5,5.4a25.07,25.07,0,0,0-1.6,4.6c-.2.5-.3,1.1-.5,1.6-.1.3-.1.6-.2.9l-.3,1.8c-.1.6-.5,1.4-.7,2.1-.3,4.2-.5,8.3-.8,12.5-.1,2.6-.2,5.1-.4,7.7a3.21,3.21,0,0,1-1,2.1c-3.1,2.4-6.2,4.6-9.3,6.9a14.58,14.58,0,0,1-.7,1.9c0,.6-.1,1.2-.1,1.9.2,4.2.2,4.2-2.1,7l-6.1-2.3c.2-1.4,1-2.9-.2-4.3-.4-.4-.2-1.4-.2-2.1,0-1.6.4-3.2-1.3-4.5-.5-.4-.3-1.7-.3-2.6a16.57,16.57,0,0,0-5.8-9.6c-3-2.8-5.7-5.9-8.7-9.1,2.3-1.5-.8-4.1,1.4-5.6-.6-1.1-1.8-1.5-1.2-3.1.5-1.4-.1-3.2-.2-4.9-.7-.5-1.5-.9-1.9.3a8.57,8.57,0,0,0-.5,2.7,7,7,0,0,1-1.3,5.6,2.47,2.47,0,0,1-.5,3.2l.1.1-.1.1,1.7,1.2c-1.9,1.7-3.2,3.2-5.4,3.7-.2.2-.4.3-.6.5l-.7.6-.7.6c-1.8,1.9-3.5,3.9-5.4,5.7a10.64,10.64,0,0,0-3.4,6.2.64.64,0,0,1,0,.6l-.3,1.8c-1.8,1.3-2.2,3.1-2.1,5.2a13,13,0,0,1-.7,3.3c-.2.9-.4,1.7-.8,3l-3.6.4c-2.6.3-4.5,1.9-6.4,3.5-1.6,1.3-3.2,2.5-4.8,3.8l1.3,1.3a1.27,1.27,0,0,1,.6.1l.6.5.7.7a.9.9,0,0,1,.5.1l.7.6-.1-.1,1.3.7c2.9,1,5,3.1,6.9,5.5,1.4,0,1,1.5,1.7,2h.1c1,0,1.1.7,1.1,1.5,0,1.4,0,2.7,1.8,3.4,1.2.5.7,1.7.5,2.7-.2,6-.5,12.1-.8,18.2a11.37,11.37,0,0,1-.6,2.5l-.9.4c-.4-.6-.7-1.2-1.1-1.8l-.6-8.1c-.2-2.2-.5-4.4-.8-7.2a7.53,7.53,0,0,0-2.2,6,41,41,0,0,1-.2,7c-.2,1.3-.3,2.8-1.9,3.6a22.35,22.35,0,0,0-3,2v-.1l-.6.8-.7,1.7-.6.7-.3.5v2.4c1.9,1.8.9,4.3,1.6,6.3a5.46,5.46,0,0,1-.1,1.8v.6c-.1,1.6-.1,3.3-.2,5l-1,.5-1.3,1.4c.1,1,.1,2,.2,3l.6.6.1.1c.4,2.6,1.3,5.2,1.2,7.8-.4,16.4-.8,32.7-1.4,49-.3,10.2-.9,20.5-1.3,30.7v2.8a2.6,2.6,0,0,1-2.9-.6c-.9-.2-1-.8-.9-1.6.2-4.3-.3-8.3-4.3-11.1a19.48,19.48,0,0,1-3.9-4.2,1.4,1.4,0,0,1-.2-1.4c.7-2.8-.2-5.7.1-8.5-.5-1.3-.9-.8-1.4,0l-.9,5.4a1.39,1.39,0,0,0,0,.9c.9,2.7-.6,4.3-2.5,5.7-1.1.8-2.1,1.7-3.2,2.5a7.88,7.88,0,0,0-3.1,4.5c-.5,2.3-1.4,4.5-2.2,7.2a14.52,14.52,0,0,0-3.6.2c-1.1.4-1.6,2-3.4,1.7a6.75,6.75,0,0,1-.2-1.4c1.4-10.6-1.4-20.3-6-29.7a14.37,14.37,0,0,0-1.8-2.5c-.4-.4-.8-.9-1.2-1.3a15.37,15.37,0,0,0-1.3-1.2l-.6-.6-3.8-3.2-2.5-1.8-1.4-1.1h.1a21.94,21.94,0,0,0-1.8-1.4l-2.5-1.2-1.9-1.2-6.7-3.9c-1.2-.7-2.2-1.2-1.8-3a2.82,2.82,0,0,0-1.9-3.5,2.2,2.2,0,0,0-.8-.1c-2.4-.2-3.9-2-5.7-3s-2.9-3-4.3-4.6c-.2-.4-.5-.8-.7-1.2h-.1c-.6-.9-1.1-1.7-1.7-2.6-.9-1.5-1.7-2.9-3.8-3.2-1-.1-1.9-1.1-3.1-1.8,1.6-1.5-1.1-3.1.3-4.8,1-1.3,1.9-2.6,2.9-3.9a1.27,1.27,0,0,1,.1-.6c-.1-.2-.2-.3-.2-.5-1.5-.5-2.8-.8-2.2-3.2.2-.7-1.2-2-.1-3.2-.1-1-.1-2-.2-3l-.8-2c-.1,0-.2-.1-.3-.1l-2.8.9c.1,1.1.1,2.3.1,3.4a8.61,8.61,0,0,1-1,4.4v1l-.8.6-1.8,1.8c2.2,1.1,1.6,3.7,3.2,5.3-.6.7-1,1.3-1.6,1.9l.6,1.3c-1,.7-1.8,1.9-2.8,2-2.3.3-3.1,2.2-4.5,3.4-.6.5-1.2,1.1-1.8,1.7l-.7.7h.1c-2.8,3.3-5.9,6.3-10.3,7.4a19.85,19.85,0,0,0-2.6.9,2.42,2.42,0,0,0-2.1,2.8.37.37,0,0,0,.1.3,1.88,1.88,0,0,1-1,2.4c-.1,0-.1,0-.2.1-2.4.9-4.8,1.9-7.2,2.9a22.61,22.61,0,0,1-2.6,1.6c-5.9,2.5-11.2,6-16.7,9.3-.2.2-.4.3-.6.5l-2,1.4a51.14,51.14,0,0,0-7.3,12.6,2.36,2.36,0,0,1-1.2,1.4,7.77,7.77,0,0,0-4.1,6.2,5.83,5.83,0,0,1-.8,1.8l-2.4-.3c-.8-.1-2.2.3-2.5-.2a11.08,11.08,0,0,1-1.3-3.6,7.39,7.39,0,0,1,0-2.1,4,4,0,0,0-.9-2.1c-.3,1.2-.4,2.5-.8,3.7a25.58,25.58,0,0,1-1.1,2.4c-.8,1.2-1.6,2.4-2.6,3.7-.6-.4-1.1-.8-1.7-1.2l-.7.5c-.1,1.1-.8,1.3-1.8,1.1l-1.2.7,3.3,2.9c-1.3.9-2.7.1-4.3.4-.4,1.7-1.7,2.6-3.6,3.1a5.06,5.06,0,0,0-3.3,5.4c.6,3.4-1.3,5.2-3.7,7-.2-.5-.4-.9-.5-1.2-1.7,1.4-2.6,1.3-2.9-.5s-1.3-1.9-2.6-2c-.1.3-.1.6-.2.9-.9-.2-1.6.7-2.9,1.2-2.1.7-2.5,2.4-3,3.9-.7,2.4-3.2,1.9-4.6,3l-1.1-1.6c-.6,1-1.2,1.9-2,3.2h-.9a5.67,5.67,0,0,1-3.4.7c-.3.2-.7.5-1,.7-8.1,5-18.2,4.9-27.3,3.1a1.78,1.78,0,0,1-1.5,1.1,18.21,18.21,0,0,1-3.3.1,12.3,12.3,0,0,1-7.5-2.9l-.2-.2a9.06,9.06,0,0,1-1.6-1.1,6.57,6.57,0,0,0-6.9-.1c-.6,2.8-3.1,2.6-5,3-1.7.3-3.6-.2-5.8-.4l1.8-2.3c-.3-1.6-1.4-1.4-2.4-1.6a8.17,8.17,0,0,1-1.9,2.2c-2.3,1.3-5-.3-5.4-3.2-.3-1.8-.6-3.5.9-5.1.8-.9.9-2.4,1.3-3.7,1.9,1.1,3.2-.6,4.2-1.7a9,9,0,0,0,2.6-5c.1-1.7-1.1-3.4-1.8-5.4l2.2-.5c.2-.7.3-1.4.5-2.1.4-1.4.3-2.4-1.3-3.2a4.39,4.39,0,0,1-2.3-3,1.38,1.38,0,0,0-.6-1.1,2.18,2.18,0,0,1-.8-.5l-.9-.6c.7-1.7-.6-2-1.6-2.3-.3-1.3-.5-2.3-.7-3.4a1.27,1.27,0,0,1-.6-.1c-1.5-.2-3.1-.5-4.6-.8-.4-.1-.7-1-1-1.6a3,3,0,0,1-2.5-2.4c-.9,0-2.1,1.1-2.8-.4l-5.4,1.8-3-2h-1.2c-1.8.8-3.8,1.3-5.4,2.8-.6.6-2.1.6-3.2.5a8.25,8.25,0,0,1-2.6-1c-.3-.9-.5-1.8-.8-3l-2.4,1.3c-.2-.1-.4-.1-.5-.2-1.7-2.5-3.6-4.3-6.9-3.1a2.46,2.46,0,0,1-1.2.1c-1.9-.5-3.7-.9-5.6-.1-.2.1-.7-.4-1-.6l-2.3-1.2c0-.4-.1-.9-.1-1.3s-.1-.7-.1-1.1c-.2-2.5-.4-4.9-.5-7.4-.1-3.8,0-7.6,0-11.4l-.2-6.3-.1-1.9c0-2.1-.1-4.1-.1-6.2v-1.3a.64.64,0,0,1,0-.6c0-1.5-.1-2.9-.1-4.4v-2.5c-.3-8.4-.6-16.7-.7-25.1a30.82,30.82,0,0,1,.7-6.1,3.89,3.89,0,0,1,1.3-2c1.5-1.6,1.6-1.8.2-3.5-.3-.4-.7-.8-1-1.2-1.6-.3-1.1-1.5-1.1-2.5v-5.5c-.1-.5-.1-1-.2-1.5a8.75,8.75,0,0,1,1-6.5,3,3,0,0,0,0-2.6c-1.6-2.4-2.8-5.1-5.6-6.5a3.55,3.55,0,0,1-2.1-3.7c.5-2.6-.4-4.9-.5-7.3a5.18,5.18,0,0,0-1.8-4,3.56,3.56,0,0,0-1.9,3.7,16,16,0,0,1-.7,3.8,3.21,3.21,0,0,0-.1,1.4,5.44,5.44,0,0,1-2.2,7,49.3,49.3,0,0,0-4,3.3c-.5-1-1.1-1.7-1.1-2.4-.1-7.2-.1-14.5-.1-21.9,1.6-.4,2.2-1.5,2.7-3.2s2-3.2,3.1-4.7c.4-.6,1.1-1,1.3-1.7.8-2.5,2.8-3.4,5.1-4a16.38,16.38,0,0,0,6.8-3.5,72.84,72.84,0,0,0-3.1-7.7c-.5-.8-2.1-1.2-3.3-1.5a72.23,72.23,0,0,0-7.9-1.3,2.35,2.35,0,0,1-2.5-2.2c-.2-1.3-.4-2.6-.7-4-.8-3.6-1.5-7.3-2.3-10.9-.8-3.1-2.9-5.4-5.2-7.5-1.8-1.6-3.5-3.2-5.3-4.8l-.6-.6c-1.5-1.6-3-3.3-4.5-4.9,0-1.1-.1-2.2,0-3.4,0-.4.4-.8.7-1.3v-.6c-1.3-3.8-.3-7.8-1-11.7l-1.8-2.4c-1.2,2.5-2.1,4.8-1.9,7.2a13.17,13.17,0,0,1-1.4,7c.3.5.9,1.2.8,1.5-.7,1.5.7,2.8.1,4.2l-.1.1-1.9,1.8h.1l-2.6,3.8-1.7,1.6-.7.7a10.76,10.76,0,0,1-1.8,2.4,18.06,18.06,0,0,0-6.2,10.8,13.59,13.59,0,0,1-1.1,2.8,3.7,3.7,0,0,0-.5,1.1c-.3,3.1-.6,6.2-.9,9.7-2.5,1-5.2,2.6-8.3,3.1-1.6.7-3.3,1.5-4.9,2.1-3.7,1.5-3.8,1.9-2,5.2a14.29,14.29,0,0,1,1.4,2c1.3,3.1,3.8,4.1,6.9,4.2a4.9,4.9,0,0,1,5.1,4,9.59,9.59,0,0,0,2.7,4.4c2,1.8,2.4,4.1,2.4,6.4,0,6.1-.2,12.2-.4,18.3,0,.9-.6,2.4-1.2,2.6-2.7.8-2.6,3.5-3.7,5.3-.4.7.3,2.1.6,3.5-.5,0-1.1.2-1.3,0a6.57,6.57,0,0,1-1.2-1.7c-.1-.2.1-.6.2-.9.5-3.5-1.3-5-4.6-3.7-1.3,1.7-.4,3.5-.3,5.3-2,.2-2.5-.2-2.3-1.7.2-1.2.3-2.4.5-3.6a10.88,10.88,0,0,1-2.3-6.7c-.1-2.6,0-5.3,0-8.3-2.8,1-2.6,3.9-4.8,4.6.3,1.3.6,2.3.9,3.6-.9-.1-1.7,0-2.1-.3-1.4-1.1.2-2.2.2-3.4-.1-.2-.1-.4-.2-.5-2.7-2.1-2.8-4.7-1.6-7.6l.3-1.5a6.21,6.21,0,0,1,.3-1c-.2-1.2-.2-2.5-1.8-2.7l-1.2-.5c-.1-.5-.2-.9-.3-1.4-.1-1.4-.3-2.8-.4-4.2-2.5-3.4-5-6.8-7.4-10.3a9,9,0,0,1-.6-2.7,6.73,6.73,0,0,1-2.3-1.3,5,5,0,0,1-.4-2.7c.1-3,.2-6,.4-8.9-.2-1.8-.3-3.5-.5-5.3-.1-.1-.2-.3-.1-.4-.1-.7-.2-1.3-.3-2s-.2-1.2-.3-1.8c-1.2-3.3-2.1-6.8-3.7-10-1.5-3-3.6-5.6-5.5-8.5a23.93,23.93,0,0,0-1.3-2.1l-2.5-3.3-.8-1.2v.2c-3-2.8-5.9-5.7-9-8.5-2.7-2.4-5.5-4.7-8.3-7l-4.4-2.7-8.1-4c-2-.1-3.3-1.6-4.9-2.5l-.5-.5V90.9c0-.6-.1-1.3-.1-1.9v-.1l-1.3-.5-2.5-.8c-.2-.1-.3-.3-.5-.5l-.1-1.9a1.69,1.69,0,0,1-.2-.5h.1l-8.1-1.7c-.1-2.2-1.9-2.6-3.9-2.5a6.48,6.48,0,0,1-6.4-3.4c-3-4.9-6.1-9.8-8.9-14.9a16.9,16.9,0,0,0-7.4-7.1c-1.3-.6-2.5-1.4-3.8-2.1-.2-1.3-.5-2.6-.7-3.9a3.23,3.23,0,0,1,1.6-3.4c2.8-1.8,3.7-4.8,5-7.6l4-1.4c0-1.5-.2-2.9-1.8-3.7-.4-.2-1-.6-1-1-.4-2.6-2.3-2.5-3.7-2.4l-4.2-4.5,2.1-1.2c-.8-1-1.4-1.9-2.1-2.7-.4-.4-1.1-.6-1.5-1-.5-.6-1-1.4,0-2.1a1.31,1.31,0,0,0,.5-1.7l-.1-.1c-.8-.4-1-.7,0-1l.2-.1,1.1-1.1.1-.1c.6-2.5.7-4.8-1.9-6.3-.3-.1,0-1.2,0-1.8-.8-1.3-3.2-1.5-2.6-3.7l-.5.1c.2,1.4-.3,2.4-1.9,2.5l-.5.5c.2.6.3,1.3.6,2.2-1.6,1.1-3,2.5-2.5,4.8a7.14,7.14,0,0,0,1.4,3.2c.8,1,.2,1.4-.3,2.1.6.5,1.2,1.1,1.8,1.7-1.2,1.4-2.4,2.7-3.6,4.1.6,1,1.2,2,1.9,3.2-.8.8-1.4,1.8-2.3,2.1-1.9.7-3.6,1.4-4.1,3.7-.1.4-1,.5-1.6.8-1.4.6-2.8,1.3-2.8,3.2l1.9,1.3v-.1c.2,0,.6-.1.6,0,.7,2.2,3.4,2.8,4.2,5.1a11.05,11.05,0,0,0,2.7,3.7c2.4,2.4,2.4,3.2-.5,5.2.4.5.7.9,1.3,1.7a22.47,22.47,0,0,0-13.8,11.6c-2.8,4.2-5.5,8.5-8.5,12.6-1,1.4-2.7,2.4-4.1,3.6l-1.6,1.1-6.8,1.9-.1.1a2.63,2.63,0,0,1-2.5,2.6c-1.1.1-2.2.7-3.2.8-.5,0-1.1-.6-1.6-.9l-.1-.1c-.6-.4-1.1-.8-1.6-1.2h-.2l-.1-.2c-.2-.1-.3-.3-.4-.4h-.2v-.2c-.1-.2-.3-.3-.4-.5h-.2v-.2l-.5-.5h-.2v-.2l-.5-.5-.2-.1-.6-.5h-.1l-.6-.6-.6-.6v-.1c-.1-.3-.2-.5-.3-.8a20.28,20.28,0,0,1,1.3-1.8q-.45-.6-1.2-1.5l1.8-3.3c-2.2-1.1-1.5-3-1.4-4.8a19.65,19.65,0,0,1,.3-2.4c-.1-.5-.2-1.1-.4-1.9-1-1.1-2.4-.2-3.8,0,0,1.7,0,3.5.1,5.2a5.08,5.08,0,0,0,.3,1.7l-2,1.6c.4,1,.7,1.8,1,2.7,1.6,1-.2,1.8-.2,2.8a12.74,12.74,0,0,0,1.3,1.9,4.34,4.34,0,0,1-.4.7l-.1.1-1.2.5a18.13,18.13,0,0,1-4.3,6.3,75.59,75.59,0,0,0-7.1,7.8c-1.2,1.5-1.7,3.5-2.4,5.3-1.6,3.9-3,7.9-4.9,11.6-1.5,3-4.4,4.2-7.7,4.4-.4.5-.8,1.4-1.3,1.5-3,.7-4.8,2.9-7,4.7-1.2,1-2.3,2.2-3.4,3.2a1.76,1.76,0,0,0,.4.5c2.4,2.3,2.3,2.2.5,5.4a19,19,0,0,0-1.5,4.6c-.2.5-.3,1.1-.5,1.6l-.2.9-.3,1.8-.7,2.1c-.3,4.2-.5,8.3-.8,12.5-.1,2.6-.2,5.1-.4,7.7a3.21,3.21,0,0,1-1,2.1c-3,2.4-6.2,4.6-9.3,6.9-.2.6-.5,1.3-.7,1.9,0,.6-.1,1.2-.1,1.9.2,4.2.2,4.2-2.1,7l-6.1-2.3c.2-1.4,1-2.9-.2-4.3-.4-.4-.2-1.4-.2-2.1,0-1.6.3-3.2-1.3-4.5-.5-.4-.3-1.7-.4-2.6a16.57,16.57,0,0,0-5.8-9.6c-3-2.8-5.7-5.9-8.7-9.1,2.3-1.5-.8-4.1,1.4-5.6-.5-1.1-1.8-1.5-1.2-3.1.5-1.4-.1-3.2-.2-4.9-.7-.5-1.5-.9-1.9.3a8.57,8.57,0,0,0-.5,2.7,7,7,0,0,1-1.3,5.6c.8,1.2.3,2.2-.6,3.2l.1.1-.1.1,1.7,1.2c-1.8,1.7-3.2,3.2-5.4,3.7l-.6.5c-.2.2-.5.4-.7.6l-.7.6c-1.8,1.9-3.5,3.9-5.4,5.7a10.5,10.5,0,0,0-3.3,6.2.47.47,0,0,1-.1.6l-.3,1.8c-1.8,1.3-2.2,3.1-2.1,5.2a19.09,19.09,0,0,1-.6,3.3c-.2.9-.4,1.7-.8,3l-3.6.4c-2.6.4-4.5,1.9-6.4,3.5-1.6,1.3-3.2,2.5-4.8,3.8l1.3,1.3a.75.75,0,0,1,.5.1l.6.5.7.6a.75.75,0,0,1,.5.1l.7.6-.1-.1,1.3.7a14.91,14.91,0,0,1,6.9,5.5c1.4,0,1,1.5,1.7,2h.1c1,0,1,.7,1.1,1.5,0,1.4,0,2.7,1.8,3.4,1.2.5.7,1.7.5,2.7-.2,6-.5,12.1-.8,18.1a11.36,11.36,0,0,1-.6,2.5l-.9.4a17.39,17.39,0,0,0-1.1-1.8c-.2-2.7-.4-5.4-.7-8.1-.2-2.2-.5-4.4-.8-7.2a7.53,7.53,0,0,0-2.2,6,41,41,0,0,1-.2,7c-.2,1.3-.3,2.8-1.9,3.6a22.35,22.35,0,0,0-3,2v-.1l-.7.8c-.2.6-.5,1.1-.7,1.7l-.6.7-.3.5v2.4c1.8,1.8.9,4.3,1.6,6.3a5.46,5.46,0,0,1-.1,1.8v.6c-.1,1.6-.1,3.3-.2,5l-1,.5a17.89,17.89,0,0,1-1.3,1.4c0,1,.1,2,.2,3l.6.6.1.1c.4,2.6,1.3,5.2,1.2,7.8-.4,16.4-.8,32.7-1.4,49-.4,10.2-.9,20.5-1.3,30.7v2.8a2.6,2.6,0,0,1-2.9-.6c-.9-.2-1-.8-.9-1.6.2-4.3-.3-8.3-4.4-11.1-1.6-1-2.7-2.7-3.9-4.2a1.4,1.4,0,0,1-.2-1.4c.7-2.8-.2-5.7.1-8.5-.5-1.3-.9-.8-1.4,0l-.9,5.4a1.39,1.39,0,0,0,0,.9c.9,2.7-.6,4.3-2.5,5.7-1.1.8-2.1,1.7-3.2,2.5a7.72,7.72,0,0,0-3,4.5c-.5,2.3-1.4,4.5-2.2,7.2a14.52,14.52,0,0,0-3.6.2c-1.1.4-1.6,2-3.4,1.7a6.75,6.75,0,0,1-.2-1.4c1.4-10.6-1.4-20.3-6-29.7a14.37,14.37,0,0,0-1.8-2.5l-1.2-1.3-1.3-1.2-.6-.6-3.8-3.2-2.6-1.8-1.4-1.1h.1l-1.8-1.5-2.5-1.2c-.6-.4-1.3-.8-1.9-1.2l-6.7-3.9c-1.2-.7-2.2-1.2-1.8-3a2.82,2.82,0,0,0-1.9-3.5,2.48,2.48,0,0,0-.8-.1c-2.4-.2-3.9-2-5.7-3s-2.9-3-4.3-4.6c-.2-.4-.5-.8-.7-1.2-.5-.9-1.1-1.7-1.7-2.6-.9-1.5-1.7-2.9-3.8-3.2-1-.1-1.9-1.1-3.1-1.8,1.6-1.5-1.1-3.1.3-4.8,1-1.3,1.9-2.6,2.9-3.9a1.27,1.27,0,0,1,.1-.6c-.1-.2-.2-.3-.2-.5-1.5-.5-2.9-.8-2.2-3.2.2-.7-1.2-2-.1-3.2,0-1-.1-2-.1-3-.3-.7-.5-1.4-.8-2-.1,0-.2-.1-.3-.1l-2.8.9c0,1.1.2,2.3.1,3.4a8.61,8.61,0,0,1-1,4.4v1l-.8.6-1.8,1.8c2.2,1.1,1.6,3.7,3.2,5.3-.5.7-1,1.3-1.5,1.9l.6,1.3c-1,.7-1.8,1.9-2.8,2-2.3.3-3.1,2.2-4.5,3.4-.6.5-1.2,1.1-1.8,1.7l-.7.7c-2.8,3.3-5.9,6.3-10.3,7.4a19.86,19.86,0,0,0-2.6.9,2.53,2.53,0,0,0-1.9,3v.1a1.81,1.81,0,0,1-1.1,2.4.1.1,0,0,0-.1.1c-2.4.9-4.8,1.9-7.2,2.9a22.61,22.61,0,0,1-2.6,1.6c-5.9,2.5-11.2,6-16.7,9.3l-.6.5-2,1.4a51.14,51.14,0,0,0-7.3,12.6,2.36,2.36,0,0,1-1.2,1.4,7.77,7.77,0,0,0-4.1,6.2,5.83,5.83,0,0,1-.8,1.8c-.9-.1-1.6-.2-2.4-.3s-2.2.3-2.5-.2a11.08,11.08,0,0,1-1.3-3.6v-2.1a4,4,0,0,0-.9-2.1c-.3,1.2-.5,2.5-.8,3.7a25.58,25.58,0,0,1-1.1,2.4c-.8,1.2-1.6,2.4-2.6,3.7l-1.6-1.2-.7.5c-.2,1.1-.8,1.3-1.8,1.1a7.46,7.46,0,0,1-1.2.7l3.3,2.9c-1.3.9-2.7.1-4.3.4-.4,1.7-1.7,2.6-3.5,3.1a5.25,5.25,0,0,0-3.4,5.4c.6,3.4-1.3,5.2-3.7,7l-.5-1.2c-1.7,1.4-2.5,1.3-2.9-.5s-1.3-1.9-2.6-2c-.1.3-.1.6-.2.9-.9-.2-1.6.7-2.9,1.2-2.1.7-2.5,2.4-3,3.9-.7,2.4-3.2,1.9-4.6,3-.3-.5-.7-1-1-1.5-.1.2-.3.3-.4.4s-.1.2-.2.3a5.71,5.71,0,0,1-1.3,2.1c-.1.1-.1.2-.2.3H701a6,6,0,0,1-3.1,1.2h-.3a8.25,8.25,0,0,1-2.7,1.2c-8.2,3.4-18.6,3.9-26.9,2.8a6.89,6.89,0,0,1-.8.3,18.21,18.21,0,0,1-3.3.1,12.3,12.3,0,0,1-7.5-2.9c-2.6-2.3-5.4-3.1-8.6-1.4-.6,2.8-3.1,2.6-5,3-1.7.3-3.6-.2-5.8-.4l1.8-2.3c-.3-1.6-1.4-1.4-2.4-1.6a8.17,8.17,0,0,1-1.9,2.2c-2.3,1.3-5-.3-5.4-3.2-.3-1.8-.6-3.5.9-5.1.8-.9.9-2.4,1.3-3.7,1.9,1.1,3.2-.6,4.2-1.7a9,9,0,0,0,2.6-5c.1-1.7-1.1-3.4-1.8-5.4l2.2-.5c.2-.7.3-1.4.5-2.1.4-1.4.3-2.4-1.3-3.2a4.39,4.39,0,0,1-2.3-3,1.61,1.61,0,0,0-.5-1.1,2.18,2.18,0,0,1-.8-.5l-.9-.6c.7-1.7-.6-2-1.6-2.3l-.7-3.4a1.27,1.27,0,0,1-.6-.1c-1.5-.2-3.1-.5-4.6-.8-.4-.1-.7-1-1-1.6a3,3,0,0,1-2.5-2.4c-.9,0-2,1.1-2.8-.4l-5.4,1.8-3-2h-1.2c-1.8.8-3.8,1.3-5.4,2.8-.6.6-2.1.6-3.2.5a8.25,8.25,0,0,1-2.6-1l-.8-3-2.4,1.3c-.2-.1-.4-.1-.5-.2-1.7-2.5-3.6-4.3-6.9-3.1a2.46,2.46,0,0,1-1.2.1,8.28,8.28,0,0,0-5.6-.1c-.2.1-.7-.4-1-.6l-2.3-1.2a5.7,5.7,0,0,0-.1-1.3,4.1,4.1,0,0,1-.1-1.1c-.2-2.5-.4-4.9-.5-7.4-.1-3.8,0-7.6,0-11.4-.1-2.1-.1-4.2-.2-6.3a12.1,12.1,0,0,0-.1-1.9l-.1-6.2v-1.3a.64.64,0,0,1,0-.6c0-1.5,0-2.9-.1-4.4v-2.5c-.3-8.4-.6-16.7-.8-25.1a30.81,30.81,0,0,1,.7-6.1,3.9,3.9,0,0,1,1.3-2c1.5-1.6,1.6-1.8.2-3.5-.3-.4-.7-.8-1-1.2-1.6-.3-1.1-1.5-1.1-2.5v-5.5c-.1-.5-.1-1-.2-1.5a8.75,8.75,0,0,1,1-6.5,3,3,0,0,0,0-2.6c-1.6-2.4-2.9-5.1-5.6-6.5a3.55,3.55,0,0,1-2.1-3.7c.5-2.6-.4-4.9-.5-7.3a5.18,5.18,0,0,0-1.8-4,3.56,3.56,0,0,0-1.9,3.7,16,16,0,0,1-.7,3.8,3.21,3.21,0,0,0-.1,1.4,5.44,5.44,0,0,1-2.2,7,49.31,49.31,0,0,0-4,3.3c-.5-1-1.1-1.7-1.1-2.4-.1-7.2,0-14.5,0-21.9,1.6-.4,2.2-1.5,2.6-3.2s2-3.2,3.1-4.7c.4-.6,1.1-1,1.3-1.7.8-2.5,2.8-3.4,5.1-4a15.8,15.8,0,0,0,6.8-3.5,72.84,72.84,0,0,0-3.1-7.7c-.4-.8-2.1-1.2-3.2-1.5a72.23,72.23,0,0,0-7.9-1.3,2.35,2.35,0,0,1-2.5-2.2c-.2-1.3-.4-2.6-.7-4-.8-3.6-1.5-7.3-2.3-10.9-.8-3.1-2.9-5.4-5.3-7.5-1.8-1.6-3.5-3.2-5.3-4.8l-.6-.6-4.8-5c0-1.1-.1-2.2,0-3.4,0-.4.4-.8.7-1.3v-.6c-1.3-3.8-.2-7.9-1-11.7-.5-.7-1.1-1.4-1.8-2.4-1.2,2.5-2.1,4.8-1.9,7.2a13.17,13.17,0,0,1-1.4,7c.3.5,1,1.2.8,1.5-.7,1.5.7,2.8.2,4.2l-.1.1c-.7.6-1.3,1.2-1.9,1.8h.1l-2.6,3.8-1.7,1.6-.7.7a10.77,10.77,0,0,1-1.8,2.4,18,18,0,0,0-6.2,10.9,13.59,13.59,0,0,1-1.1,2.8,3.7,3.7,0,0,0-.5,1.1c-.3,3.1-.6,6.2-1,9.7-2.5,1-5.2,2.6-8.3,3.1-1.6.7-3.3,1.5-4.9,2.1-3.7,1.5-3.8,1.9-2,5.2a14.29,14.29,0,0,1,1.4,2c1.3,3.1,3.8,4.1,6.9,4.2a4.9,4.9,0,0,1,5.1,4A9.59,9.59,0,0,0,519,180c2,1.8,2.4,4.1,2.4,6.4,0,6.1-.2,12.2-.5,18.3,0,.9-.6,2.4-1.2,2.6-2.7.8-2.6,3.5-3.7,5.3-.4.7.3,2.1.6,3.5-.5,0-1.1.2-1.3,0a6.57,6.57,0,0,1-1.2-1.7c-.1-.2.1-.6.2-.9.5-3.5-1.3-5-4.5-3.7-1.3,1.7-.4,3.5-.3,5.3-2,.2-2.5-.2-2.3-1.7.2-1.2.3-2.4.5-3.6a10.88,10.88,0,0,1-2.3-6.7c-.1-2.6,0-5.3,0-8.3-2.8,1-2.6,3.9-4.8,4.6.3,1.3.5,2.3.9,3.6-.9-.1-1.7,0-2.1-.3-1.4-1.1.1-2.2.2-3.4,0-.2,0-.4-.2-.5-2.7-2.1-2.8-4.7-1.6-7.6l.3-1.5a6.22,6.22,0,0,1,.3-1c-.2-1.2-.2-2.5-1.8-2.7l-1.1-.5c-.1-.5-.2-.9-.3-1.4-.1-1.4-.3-2.8-.4-4.2-2.5-3.4-5-6.8-7.4-10.3a13.1,13.1,0,0,1-.6-2.7,6.73,6.73,0,0,1-2.3-1.3,5,5,0,0,1-.4-2.7c.1-3,.2-6,.4-8.9-.2-1.8-.3-3.5-.5-5.3a.6.6,0,0,1-.1-.4c-.1-.7-.2-1.3-.3-2s-.2-1.2-.3-1.8c-1.2-3.3-2.1-6.8-3.7-10-1.5-3-3.6-5.6-5.5-8.5-.5-.7-.8-1.4-1.3-2.1l-2.5-3.3c-.3-.4-.5-.8-.8-1.2v.2c-3-2.8-6-5.7-9-8.5-2.7-2.4-5.5-4.7-8.2-7l-4.4-2.7-8.1-4c-2-.1-3.3-1.6-4.9-2.5l-.5-.5V92.6c0-.6-.1-1.3-.1-1.9v-.1l-1.3-.5-2.5-.8-.5-.5a12.1,12.1,0,0,0-.1-1.9c-.1-.2-.1-.4-.2-.5h.1l-8.1-1.7c-.1-2.2-1.9-2.6-3.9-2.5a6.48,6.48,0,0,1-6.4-3.4c-3-4.9-6.1-9.8-8.9-14.9a16.62,16.62,0,0,0-7.5-7.1c-1.3-.6-2.5-1.4-3.8-2.1-.3-1.3-.5-2.6-.7-3.9a3.3,3.3,0,0,1,1.6-3.4c2.8-1.8,3.7-4.8,5-7.6l4-1.4c0-1.5-.2-2.9-1.8-3.7-.4-.2-1-.6-1-1-.4-2.6-2.3-2.5-3.7-2.4l-4.2-4.5,2.1-1.2c-.8-1-1.4-1.9-2.1-2.7-.4-.4-1.1-.6-1.5-1-.5-.6-1-1.4,0-2.1a1.19,1.19,0,0,0,.4-1.7l-.1-.1c-.8-.4-1-.7,0-1l.2-.1,1.1-1.1.1-.1c.7-2.5.7-4.8-2-6.3-.3-.1,0-1.2,0-1.8-.8-1.3-3.1-1.5-2.6-3.7a.9.9,0,0,0-.5.1c.2,1.4-.3,2.4-1.9,2.5l-.5.5c.2.6.3,1.3.6,2.2-1.6,1.1-3,2.5-2.5,4.8a6.33,6.33,0,0,0,1.5,3.2c.8,1,.2,1.4-.3,2.1l1.9,1.7-3.6,4.1c.6,1,1.2,2,1.9,3.2-.8.8-1.4,1.8-2.3,2.1-1.9.7-3.6,1.4-4.1,3.7-.1.4-1,.5-1.5.8-1.4.6-2.8,1.3-2.8,3.2l1.9,1.3v-.1c.2,0,.6-.1.6,0,.7,2.2,3.4,2.8,4.2,5.1a11.05,11.05,0,0,0,2.7,3.7c2.4,2.4,2.4,3.2-.5,5.2l1.3,1.7a22.26,22.26,0,0,0-13.6,11.7c-2.8,4.2-5.5,8.5-8.5,12.6-1.1,1.4-2.8,2.4-4.2,3.6L354.2,84l-6.8,1.9-.1.1a2.63,2.63,0,0,1-2.5,2.6c-1.1.1-2.1.7-3.2.8-.5,0-1-.6-1.6-.9l-.1-.1c-.5-.4-1.1-.8-1.6-1.2h-.2V87l-.4-.4h-.2v-.2l-.5-.5h-.2v-.2l-.5-.5h-.1V85l-.5-.5-.1-.1-.6-.5h2.2l-.6-.6-.6-.6v-.1c-.1-.3-.2-.5-.3-.8A20.28,20.28,0,0,1,337,80l-1.2-1.5c.5-1,1.1-2,1.8-3.3-2.2-1.1-1.5-3-1.4-4.8l.3-2.4c-.1-.5-.2-1.1-.4-1.9-1-1.1-2.4-.2-3.8,0,0,1.7,0,3.5.1,5.2a10.11,10.11,0,0,0,.3,1.7l-2,1.6c.4,1,.7,1.8,1,2.7,1.6,1-.1,1.8-.2,2.8l1.3,1.9a4.35,4.35,0,0,1-.4.7l-.1.1-1.2.5a18.13,18.13,0,0,1-4.3,6.3,75.6,75.6,0,0,0-7.1,7.8,23.2,23.2,0,0,0-2.4,5.3c-1.6,3.9-3,7.9-4.9,11.6-1.5,3-4.4,4.2-7.7,4.4-.4.5-.8,1.4-1.3,1.5-3,.7-4.8,2.9-7,4.7-1.2,1-2.3,2.2-3.4,3.2a1.76,1.76,0,0,0,.4.5c2.4,2.3,2.3,2.2.5,5.4a27.53,27.53,0,0,0-1.7,4.5c-.2.5-.3,1.1-.5,1.6l-.2.9-.3,1.8-.7,2.1c-.3,4.2-.5,8.3-.8,12.5-.1,2.6-.2,5.2-.4,7.7a3.21,3.21,0,0,1-1,2.1c-3,2.4-6.2,4.6-9.3,6.9a14.58,14.58,0,0,1-.7,1.9c0,.6-.1,1.2-.1,1.9.2,4.2.2,4.2-2.1,7l-6.1-2.3c.2-1.4,1-2.9-.2-4.3-.4-.4-.2-1.4-.2-2.1,0-1.6.3-3.2-1.3-4.5-.5-.4-.3-1.7-.3-2.6a16.57,16.57,0,0,0-5.8-9.6c-3-2.8-5.7-5.9-8.7-9.1,2.3-1.5-.8-4.1,1.4-5.6-.5-1.1-1.8-1.5-1.2-3.1.5-1.4-.1-3.2-.2-4.9-.8-.5-1.5-.9-1.9.3a8.57,8.57,0,0,0-.5,2.7,7,7,0,0,1-1.3,5.6c.8,1.2.3,2.2-.6,3.1l.1.1-.1.2,1.7,1.2c-1.8,1.7-3.2,3.2-5.4,3.7l-.6.5c-.2.2-.5.4-.7.6l-.7.6c-1.8,1.9-3.5,3.9-5.4,5.7a11.22,11.22,0,0,0-3.4,6.2.64.64,0,0,1,0,.6l-.3,1.8a5.27,5.27,0,0,0-2.1,5.2,19.09,19.09,0,0,1-.6,3.3c-.2.9-.4,1.7-.8,3l-3.6.4c-2.6.4-4.5,1.9-6.4,3.5-1.6,1.3-3.2,2.5-4.8,3.8a15.93,15.93,0,0,0,1.3,1.3.75.75,0,0,1,.5.1l.6.5.7.6a.9.9,0,0,1,.5.1l.7.6-.1-.1,1.3.7c2.9,1,5,3.1,6.9,5.5,1.4,0,1,1.5,1.7,2h.1c1,0,1.1.7,1.1,1.5,0,1.4,0,2.7,1.8,3.4,1.2.5.7,1.7.5,2.7-.3,6-.5,12.1-.8,18.1a11.36,11.36,0,0,1-.6,2.5l-.9.4c-.4-.6-.7-1.2-1.1-1.8-.2-2.7-.4-5.4-.7-8.1-.2-2.2-.5-4.4-.8-7.2a7.53,7.53,0,0,0-2.2,6,41,41,0,0,1-.2,7c-.2,1.3-.3,2.8-1.9,3.6a22.34,22.34,0,0,0-3,2v-.1l-.6.8c-.2.6-.5,1.1-.7,1.7l-.6.7-.3.5v2.4c1.9,1.8.9,4.3,1.6,6.3a3.67,3.67,0,0,1-.1,1.8v.6c-.1,1.6-.1,3.3-.2,5l-1,.5a17.87,17.87,0,0,1-1.3,1.4c.1,1,.1,2,.2,3l.6.6.1.1c.4,2.6,1.3,5.2,1.2,7.8-.4,16.4-.8,32.7-1.4,49-.3,10.2-.9,20.5-1.3,30.7v2.8a2.6,2.6,0,0,1-2.9-.6c-.9-.2-1-.8-.9-1.6.2-4.3-.3-8.3-4.4-11.1a19.48,19.48,0,0,1-3.9-4.2,1.7,1.7,0,0,1-.2-1.4c.7-2.8-.2-5.7.1-8.5-.5-1.3-.9-.8-1.4,0l-.9,5.4a1.39,1.39,0,0,0,0,.9c.9,2.7-.6,4.3-2.5,5.7-1.1.8-2.1,1.7-3.2,2.5a7.72,7.72,0,0,0-3,4.5c-.5,2.3-1.4,4.5-2.2,7.2a14.52,14.52,0,0,0-3.6.2c-1.1.4-1.6,2-3.4,1.7a6.75,6.75,0,0,1-.2-1.4c1.4-10.6-1.4-20.3-6-29.7a14.37,14.37,0,0,0-1.8-2.5l-1.3-1.3a15.38,15.38,0,0,0-1.3-1.2l-.6-.6-3.8-3.2-2.5-1.8-1.4-1.1h.1l-1.8-1.5-2.5-1.2-1.9-1.2-6.7-3.9c-1.1-.7-2.2-1.2-1.8-3a2.78,2.78,0,0,0-2.8-3.6c-2.4-.2-3.9-2-5.7-3s-2.8-3-4.3-4.6l-.7-1.2c-.5-.9-1.1-1.7-1.7-2.6-.9-1.5-1.7-2.9-3.8-3.2-1-.1-1.9-1.1-3.1-1.8,1.6-1.5-1.1-3.1.3-4.8,1-1.3,1.9-2.6,2.9-3.9a1.27,1.27,0,0,1,.1-.6c-.1-.2-.2-.3-.2-.5-1.5-.5-2.9-.8-2.2-3.2.2-.7-1.2-2-.1-3.2,0-1-.1-2-.1-3-.3-.7-.5-1.4-.8-2-.1,0-.2-.1-.3-.1l-2.8.9c0,1.1.2,2.3.1,3.4a8.71,8.71,0,0,1-1.1,4.4v1l-.8.6-1.8,1.8c2.1,1.1,1.6,3.7,3.2,5.3l-1.6,1.9.6,1.3c-1,.7-1.8,1.9-2.8,2-2.3.3-3.1,2.2-4.5,3.4-.6.5-1.2,1.1-1.8,1.7l-.7.7c-2.8,3.3-5.9,6.3-10.3,7.4a19.86,19.86,0,0,0-2.6.9,2.53,2.53,0,0,0-1.9,3v.1a1.88,1.88,0,0,1-1,2.4c-.1,0-.1,0-.2.1-2.4.9-4.8,1.9-7.2,2.9a22.61,22.61,0,0,1-2.6,1.6c-5.9,2.5-11.2,6-16.6,9.3l-.6.5-2,1.4A51.14,51.14,0,0,0,63,322.3a2.36,2.36,0,0,1-1.2,1.4,7.77,7.77,0,0,0-4.1,6.2,5.83,5.83,0,0,1-.8,1.8c-.9-.1-1.6-.2-2.4-.3s-2.2.3-2.5-.2a10.92,10.92,0,0,1-1.2-3.6v-2.1a4,4,0,0,0-.9-2.1c-.3,1.2-.4,2.5-.8,3.7a25.57,25.57,0,0,1-1.1,2.4c-.8,1.2-1.6,2.4-2.6,3.7L43.7,332l-.7.5h0c-.2,1.1-.8,1.3-1.8,1.1a7.46,7.46,0,0,1-1.2.7l3.3,2.9c-1.3.9-2.7.1-4.3.4-.4,1.7-1.7,2.6-3.5,3.1a5.25,5.25,0,0,0-3.4,5.4c.6,3.4-1.3,5.2-3.7,7l-.5-1.3c-1.7,1.4-2.5,1.3-2.9-.5s-1.3-1.9-2.6-2c-.1.3-.1.6-.2.9-.9-.2-1.6.7-2.9,1.2-2.1.7-2.5,2.4-3,3.9-.7,2.4-3.2,1.9-4.6,3-.4-.5-.7-1.1-1.1-1.6-.6,1-1.2,1.9-2,3.2H7.8a7,7,0,0,1-1.2-.3l1.1-2.5-1.5-.3c-1.3,2.5-3.7,3-6.2,3.1V655.8H1932.8V118.9A28.19,28.19,0,0,0,1930.4,116ZM4.9,403.8a3.22,3.22,0,0,1-2.5-.7,2.38,2.38,0,0,1,0-3.4l.1-.1,4.5.6C6.7,401.9,6.6,403.5,4.9,403.8ZM6,398c-1.6,1-2.7.9-3.1-.2-.5-1.3.3-4.2,1.3-4.4.5-.1,1.1.6,1.6,1l.1.1L7.4,397A7.1,7.1,0,0,1,6,398Zm5,16.6c-1.4.5-1.8-.1-1.8-1.9l2.9,1A7.29,7.29,0,0,1,11,414.6ZM245.3,207.4c-1.9.4-2.1,1-1.6,2.8a15.23,15.23,0,0,1,.6,4.2c0,2.6-.1,5.2-.2,7.7,0,1.1-.1,2.3-1.7,2.6-.2-.3-.5-.5-.4-.8.1-5,.3-9.9.5-14.8a8.3,8.3,0,0,1,.6-2.1c.8-1.5.5-3.5,2.3-4.5.4-1,1.1-1.2,1.4-.2a36.21,36.21,0,0,1,.6,4.6A19.08,19.08,0,0,1,245.3,207.4Zm284.1-6.5V183.4h.9C530.3,189.3,531.1,195.1,529.4,200.9Zm5.4-3h-.3V187.4l.3.1Zm8.6-4.5h0a52.54,52.54,0,0,1-.6,7.9,4.43,4.43,0,0,1-1.8,2.6,1.31,1.31,0,0,1-1.9-.2,1.69,1.69,0,0,1-.3-1c.2-6.4-1.1-12.8.6-19.1.6-2.2,1.9-4.3,2.8-6.4l.8.1a24.52,24.52,0,0,1,.2,2.7C543.3,184.5,543.4,188.9,543.4,193.4Zm8.7,10.8h0c-.9-2.3-1.4-12.6-.9-17.9a5.63,5.63,0,0,1,1.2-3C552.8,190.2,553.4,197,552.1,204.2Zm387.3,1.2c-1.9.4-2.1,1-1.7,2.8a15.22,15.22,0,0,1,.6,4.2c0,2.6-.1,5.2-.2,7.7,0,1.1-.1,2.3-1.7,2.6-.2-.3-.5-.5-.4-.8.2-5,.3-9.9.5-14.8a8.3,8.3,0,0,1,.6-2.1c.8-1.5.5-3.5,2.3-4.5.4-1,1.1-1.2,1.4-.2a36.2,36.2,0,0,1,.6,4.6A11.53,11.53,0,0,1,939.4,205.4Zm284.1-6.5V181.4h.9C1224.4,187.3,1225.2,193.1,1223.5,198.9Zm5.4-3h-.3V185.4l.3.1Zm8.6-4.5h0a52.53,52.53,0,0,1-.6,7.9,4.43,4.43,0,0,1-1.8,2.6,1.31,1.31,0,0,1-1.9-.2,1.69,1.69,0,0,1-.3-1c.2-6.4-1.1-12.8.6-19.1a40.64,40.64,0,0,1,2.9-6.4l.8.1a24.52,24.52,0,0,1,.2,2.7C1237.5,182.5,1237.5,186.9,1237.5,191.4Zm8.7,10.8h0c-1-2.3-1.5-12.6-1-17.9a5.63,5.63,0,0,1,1.2-3C1246.9,188.2,1247.5,195,1246.2,202.2Zm387.3,1.2h0c-1.8.4-2.1.9-1.6,2.8a15.22,15.22,0,0,1,.6,4.2c0,2.6-.1,5.1-.2,7.7,0,1.1-.1,2.3-1.7,2.6-.2-.3-.4-.5-.4-.8.1-5,.3-9.9.5-14.8a8.3,8.3,0,0,1,.6-2.1c.8-1.5.5-3.5,2.3-4.5.4-1,1.1-1.1,1.4-.2a36.19,36.19,0,0,1,.6,4.6A12.28,12.28,0,0,1,1633.5,203.4Zm284.1-6.5V179.4h.9C1918.5,185.3,1919.3,191.1,1917.6,196.9Zm5.4-3h-.3V183.4l.3.1Zm8.6-4.5h0a52.53,52.53,0,0,1-.6,7.9,4.43,4.43,0,0,1-1.8,2.6,1.31,1.31,0,0,1-1.9-.2,1.69,1.69,0,0,1-.3-1c.2-6.4-1.1-12.8.6-19.1a40.64,40.64,0,0,1,2.9-6.4l.8.1a24.52,24.52,0,0,1,.2,2.7C1931.6,180.5,1931.6,184.9,1931.6,189.4Z"/></g></g></svg>