<?xml version="1.0" encoding="utf-8"?>
<!-- Generator: Adobe Illustrator 22.1.0, SVG Export Plug-In . SVG Version: 6.00 Build 0)  -->
<svg version="1.1" id="Layer_1" xmlns="http://www.w3.org/2000/svg" xmlns:xlink="http://www.w3.org/1999/xlink" x="0px" y="0px"
	 viewBox="0 0 1931.1 1082.1" style="enable-background:new 0 0 1931.1 1082.1;" xml:space="preserve">
<style type="text/css">
	.st0{fill:#F0C743;}
	.st1{fill:none;}
</style>
<title>Asset 1</title>
<g id="Layer_2_1_">
	<g id="DESIGNED_BY_FREEPIK">
		<path class="st0" d="M768.6,429.4c-65.6,0-122.3,33.1-149.1,81.1c-14.3-42.9-59.9-74.3-114-74.3c-9.7,0-19.3,1-28.8,3
			C471.3,364.3,399.4,305,311.6,305c-61.5,0-115.2,29.1-143.7,72.3c-37.1-38.2-92.7-62.5-154.9-62.5c-3.2,0-6.3,0.1-9.5,0.2v350.6
			c3.1,0.1,6.3,0.2,9.5,0.2c85.3,0,158.2-45.7,188-110.4c29.3,22.8,68.1,36.7,110.6,36.7c28.4,0.1,56.4-6.3,82-18.9
			c16.2,40,60.2,68.7,111.9,68.7c41.7,0,78.3-18.6,99.4-46.8c12.3,68.8,80.9,121.4,163.6,121.4c91.4,0,165.6-64.3,165.6-143.5
			S860,429.4,768.6,429.4z"/>
		<path class="st0" d="M1116.4,390c69.9,0,130.2,33.1,158.8,81c15.2-42.9,63.8-74.3,121.3-74.3c10.3,0,20.5,1,30.6,3
			c5.9-74.9,82.4-134.3,175.9-134.3c65.5,0,122.6,29.1,153.1,72.3c39.5-38.2,98.7-62.5,164.9-62.5c3.4,0,6.7,0.1,10.1,0.2v350.6
			c-3.3,0.1-6.7,0.2-10.1,0.2c-90.8,0-168.4-45.7-200.2-110.4c-31.2,22.8-72.5,36.7-117.7,36.7c-30.2,0.1-60.1-6.3-87.3-18.9
			c-17.3,40-64.1,68.7-119.2,68.7c-44.4,0-83.4-18.6-105.9-46.8c-13.1,68.8-86.1,121.4-174.2,121.4c-97.4,0-176.3-64.3-176.3-143.5
			S1019.1,390,1116.4,390z"/>
		<path class="st0" d="M367.2,799.8c5.7-9.8,10.3-20.3,13.7-31.2c57.7-9.9,102.5-50.8,110.5-101.8c18.4,4.3,37.6,4.1,55.9-0.5
			c12.9,31,47.1,53.2,87.3,53.2c5.5,0,11-0.4,16.4-1.3c14.4,40.4,52.6,71.8,100.5,81.7h64.7c55.2-11.4,97.6-51.5,105.3-101
			c2.2,0.1,4.5,0.2,6.8,0.2c31.8,0,60.2-12.5,79.2-32.2c25,21.1,59.2,34.2,96.9,34.2c76.7,0,138.9-53.9,138.9-120.4
			s-62.2-120.4-138.9-120.4c-56.5,0-105,29.2-126.7,71.2c-15.5-7.2-32.3-11-49.3-10.9c-40.8,0-76.1,20.6-92.8,50.5
			c-16.7-5.8-34.1-8.7-51.7-8.7c-30.1,0-57.9,8.3-80.6,22.4c-17-16.1-41.4-26.2-68.5-26.2c-5.4,0-10.9,0.4-16.2,1.3
			c-10.8-39.3-51.5-68.5-100.1-68.5c-16.9-0.1-33.6,3.6-49.1,10.7c-24.9-32.2-67.3-53.5-115.5-53.5c-73,0-132.8,48.8-138.4,110.9
			c-6.7-0.6-13.5-0.9-20.4-0.9C88.6,558.5,2.4,633.2,2.4,725.4c0.1,26.2,7.1,52,20.2,74.4H367.2z"/>
		<path class="st0" d="M1869.6,421.1c-23-12.5-48.6-19-74.6-18.9c-60.6,0-112.1,33.7-131.1,80.6c-18.9-7.7-39-11.6-59.4-11.5
			c-34.6,0-66.2,11-90.5,29.1c-17-29-51.7-48.8-91.8-48.8c-56.9,0-103,40-103,89.3s46.1,89.3,103,89.3c16.3,0.1,32.4-3.4,47.3-10
			c14.7,52.8,69.6,92,135,92c60.6,0,112.1-33.7,131.1-80.6c18.9,7.7,39,11.6,59.4,11.5c26,0.1,51.6-6.3,74.6-18.8V421.1z"/>
		<path class="st0" d="M1869.6,796.9V493.2c-30.5-14.5-63.7-22-97.3-21.9c-87.5,0-161.9,48.7-189.2,116.5c-7-0.8-14-1.2-21-1.2
			c-31.7,0-61.3,8.1-86.1,22c-10.7-66.8-76.9-118.3-157-118.3c-69.7,0-128.9,39-150.1,93.2c-14.9-5.3-30.6-8-46.5-8
			c-57.5,0-105.6,34.4-118.6,80.8c-6.8-1-13.7-1.5-20.7-1.5c-39,0-73.7,15.9-96.1,40.6c-16.7-18.3-42.5-30.1-71.6-30.1
			c-8.5,0-16.9,1.1-25.2,3.2c-19.4-36.1-61.7-61.2-110.7-61.2c-67.4,0-122,47.4-122,105.8c0,36,20.7,67.7,52.3,86.8h139.4l0.9-0.5
			l0.6,0.5h345.6c2.1-4.6,3.9-9.3,5.2-14.2c6.8,1,13.7,1.5,20.7,1.5c43.1,0,81-19.4,102.7-48.7c26.3,16.8,58.7,26.7,93.9,26.7
			c31.7,0,61.3-8.1,86.1-22c3.5,20.7,12,40.2,24.7,56.7h433.5C1865.5,798.9,1867.6,797.9,1869.6,796.9z"/>
		<path class="st0" d="M1870.7,430.8c-49.3,14.4-86.1,52.3-92.9,98.2c-99.9,15.1-175.8,90.6-175.8,181.5c0,5.9,0.3,11.8,1,17.6
			c-6.3-0.8-12.6-1.1-18.9-1.1c-41.3,0-78.4,15.8-103.8,40.7C1451.2,696.2,1372.5,645,1280,645c-64.8,0-122.8,25.2-161.8,64.8
			c-3.2-0.2-6.4-0.3-9.6-0.3c-38.5,0-73.3,13.7-98.4,35.7c-45.9-24.1-100.2-24.1-146.1,0c-25.1-22-59.9-35.7-98.4-35.7
			c-3.2,0-6.4,0.1-9.6,0.3c-39-39.7-97-64.8-161.8-64.8c-92.5,0-171.2,51.2-200.4,122.7c-25.3-25-62.4-40.7-103.8-40.7
			c-6.3,0-12.6,0.4-18.9,1.1c0.6-5.8,1-11.7,1-17.6c0-90.9-75.9-166.4-175.8-181.5c-6.8-46-43.6-83.8-92.9-98.2v369h1867.2V430.8z"
			/>
		<path class="st0" d="M766.2,701.9c-65.6,0-122.3,34-149.1,83.2c-14.3-44-59.9-76.2-114-76.2c-9.7,0-19.3,1-28.7,3.1
			c-5.5-76.9-77.3-137.8-165.2-137.8c-61.5,0-115.2,29.9-143.7,74.2c-37.1-39.2-92.7-64.2-154.9-64.2c-3.2,0-6.3,0.1-9.5,0.2v359.9
			c3.1,0.1,6.3,0.2,9.5,0.2c85.3,0,158.2-47,188-113.4c29.3,23.4,68.1,37.7,110.6,37.7c28.4,0.1,56.5-6.5,82-19.4
			c16.3,41.1,60.2,70.5,111.9,70.5c41.7,0,78.3-19.1,99.5-48c12.3,70.6,80.9,124.6,163.6,124.6c91.4,0,165.6-66,165.6-147.3
			S857.6,701.9,766.2,701.9z"/>
		<path class="st0" d="M1114.4,661.4c70,0,130.5,34,159.1,83.2c15.3-44,63.9-76.2,121.6-76.2c10.3,0,20.6,1,30.7,3.1
			c5.9-76.9,82.6-137.8,176.3-137.8c65.7,0,122.9,29.9,153.4,74.2c39.6-39.2,99-64.2,165.3-64.2c3.4,0,6.8,0.1,10.1,0.2v359.9
			c-3.4,0.1-6.7,0.2-10.1,0.2c-91,0-168.9-47-200.7-113.4c-31.3,23.4-72.7,37.7-118,37.7c-30.3,0.1-60.3-6.5-87.6-19.4
			c-17.3,41.1-64.3,70.5-119.5,70.5c-44.5,0-83.6-19.1-106.2-48c-13.1,70.6-86.3,124.6-174.6,124.6c-97.6,0-176.7-66-176.7-147.3
			S1016.8,661.4,1114.4,661.4z"/>
		<path class="st0" d="M364.8,1082.1c5.7-10.1,10.3-20.8,13.7-32c57.7-10.2,102.5-52.1,110.5-104.5c18.4,4.4,37.6,4.2,55.9-0.6
			c12.9,31.8,47.1,54.6,87.3,54.6c5.5,0,11-0.4,16.4-1.3c14.4,41.5,52.6,73.7,100.5,83.8h64.7c55.2-11.7,97.6-52.8,105.3-103.7
			c2.2,0.1,4.5,0.2,6.8,0.2c31.8,0,60.2-12.9,79.2-33c25,21.7,59.2,35.1,96.9,35.1c76.7,0,138.9-55.3,138.9-123.6
			s-62.2-123.6-138.9-123.6c-56.5,0-105,30-126.7,73.1c-15.4-7.4-32.3-11.2-49.3-11.2c-40.8,0-76.1,21.2-92.8,51.8
			c-16.6-5.9-34.1-8.9-51.6-8.9c-30.1,0-57.9,8.5-80.6,23c-17-16.6-41.4-26.9-68.5-26.9c-5.4,0-10.9,0.4-16.2,1.3
			c-10.8-40.3-51.5-70.3-100.1-70.3c-16.9-0.1-33.7,3.7-49,11c-24.9-33.1-67.3-54.9-115.5-54.9c-73,0-132.8,50.1-138.4,113.8
			c-6.7-0.6-13.5-1-20.4-1C86.2,834.4,0,911.1,0,1005.7c0.1,26.9,7,53.2,20.2,76.4H364.8z"/>
		<path class="st0" d="M1867.2,693.4c-22.9-12.8-48.5-19.5-74.6-19.4c-60.6,0-112.1,34.6-131.1,82.8c-18.9-7.9-39-11.9-59.4-11.8
			c-34.6,0-66.2,11.3-90.5,29.9c-17-29.7-51.7-50.1-91.8-50.1c-56.9,0-103,41-103,91.7s46.1,91.7,103,91.7
			c16.3,0.1,32.4-3.4,47.3-10.2c14.7,54.2,69.6,94.4,135,94.4c60.6,0,112.1-34.6,131.1-82.8c18.9,7.9,39,11.9,59.4,11.8
			c26.1,0.1,51.7-6.5,74.6-19.4L1867.2,693.4z"/>
		<path class="st0" d="M1867.2,1079.2V767.4c-30.4-14.9-63.6-22.6-97.3-22.4c-87.5,0-161.9,50-189.2,119.5c-7-0.8-14-1.3-21-1.3
			c-30.1-0.2-59.7,7.6-86.1,22.6c-10.7-68.6-76.9-121.4-157-121.4c-69.7,0-128.9,40-150.1,95.7c-14.9-5.4-30.6-8.2-46.5-8.2
			c-57.5,0-105.6,35.4-118.6,83c-6.8-1-13.7-1.6-20.6-1.6c-39,0-73.7,16.3-96.1,41.7c-16.7-18.9-42.5-31-71.6-31
			c-8.5,0-17,1.1-25.3,3.2c-19.4-37.1-61.6-62.8-110.6-62.8c-67.3,0-122,48.6-122,108.6c0,36.9,20.7,69.5,52.3,89.1h139.4l0.9-0.5
			l0.6,0.5h345.6c2.1-4.7,3.9-9.6,5.2-14.6c6.8,1,13.7,1.6,20.7,1.6c43.1,0,81-19.9,102.7-50c26.3,17.2,58.7,27.4,93.9,27.4
			c30.1,0.2,59.7-7.6,86.1-22.6c3.4,21.2,11.9,41.2,24.7,58.2H1861C1863.1,1081.1,1865.2,1080.2,1867.2,1079.2z"/>
		<path class="st0" d="M1931.1,607.8c-50.9,18.5-89,67.2-96,126.3c-103.2,19.4-181.7,116.5-181.7,233.4c0,7.6,0.3,15.1,1,22.6
			c-6.5-1-13-1.5-19.5-1.5c-42.7,0-81.1,20.2-107.2,52.3c-30.2-91.9-111.5-157.8-207.2-157.8c-67,0-126.9,32.3-167.2,83.3
			c-3.3-0.3-6.6-0.4-9.9-0.4c-39.8,0-75.8,17.5-101.7,45.9c-47.3-31-103.8-31-151,0c-25.9-28.3-61.9-45.9-101.7-45.9
			c-3.3,0-6.6,0.2-9.9,0.4c-40.3-50.9-100.2-83.3-167.2-83.3c-95.6,0-176.9,65.9-207.2,157.8c-26.2-32-64.5-52.3-107.2-52.3
			c-6.5,0-13,0.5-19.5,1.5c0.7-7.5,1-15.1,1-22.6c0-116.9-78.5-213.9-181.7-233.4c-7-59.1-45.1-107.7-96-126.3v474.3h1930V607.8z"/>
		<rect class="st1" width="1931.1" height="315"/>
	</g>
</g>
</svg>
