<svg xmlns="http://www.w3.org/2000/svg" viewBox="0 0 1933.4 380.53"><defs><style>.cls-1{fill:#602717;}</style></defs><title>Asset 1</title><g id="Layer_2" data-name="Layer 2"><g id="Layer_1-2" data-name="Layer 1"><g id="_Group_" data-name="&lt;Group&gt;"><path class="cls-1" d="M1532.45,352.61c.94-1,1.88-2,2.82-3a29,29,0,0,1-.27,4l-2.52-.46S1532.47,352.92,1532.45,352.61Z"/><path class="cls-1" d="M1608.11,254.25l16.24,22.23c-.87,2.06-1.76,4.09-2.65,6.08l-16.82-23.18c.83-1.3,1.66-2.62,2.49-3.94C1607.62,255,1607.87,254.65,1608.11,254.25Z"/><path class="cls-1" d="M1641.52,297l-.36,2.2a3.12,3.12,0,0,1,.55,1.79,2.82,2.82,0,0,1-1.23,2.43l-3.09,19.11a183,183,0,0,1,2.43-18.86l-.27,0h-6.48a2.77,2.77,0,0,1,0-5.4h1.63l2.38-2.69c1.32.44,2.91.26,4.87-1.26a14.49,14.49,0,0,0,1.78-1.65A12.5,12.5,0,0,0,1641.52,297Z"/><path class="cls-1" d="M1750.19,247.67q3.59,5.87,7.22,11.46l-17.11-.63.79-.84c-.08-1.65-.59-9-2.67-10.58a5.09,5.09,0,0,1,4.63.17c-.39,2.73-.05,5.61-.08,8.41Q1746.51,251.84,1750.19,247.67Z"/><path class="cls-1" d="M1789.87,345.4a7.69,7.69,0,0,1,3.78,1c-3.72,2.33-5.66.7-7-.26A7.68,7.68,0,0,1,1789.87,345.4Z"/><path class="cls-1" d="M1813.23,330.42l-.11.06c-.9.46-1.9,1-3,1.71a39.62,39.62,0,0,1,.23-4.85l2.77,3Z"/><g id="_Group_2" data-name="&lt;Group&gt;"><path class="cls-1" d="M1535.39,336.92c-1.37.86-3.43,2.35-7-.25a7.62,7.62,0,0,1,7,.25Z"/><path class="cls-1" d="M1532.45,352.61c.94-1,1.88-2,2.82-3a29,29,0,0,1-.27,4l-2.52-.46S1532.47,352.92,1532.45,352.61Z"/><path class="cls-1" d="M1535.39,336.92c-1.37.86-3.43,2.35-7-.25a7.62,7.62,0,0,1,7,.25Z"/></g><g id="_Group_3" data-name="&lt;Group&gt;"><path class="cls-1" d="M1818,317c-2.66,1.66-4.19,9.15-4.85,13.3a.77.77,0,0,0,0,.15c-.25,1.58-.37,2.64-.37,2.64l-2.56.27c0-.4,0-.8,0-1.2a39.62,39.62,0,0,1,.23-4.85,65.32,65.32,0,0,0,.65-10.57,7.62,7.62,0,0,1,7,.26Z"/><path id="_Path_" data-name="&lt;Path&gt;" class="cls-1" d="M1818,317a7.64,7.64,0,0,0-7-.26C1812.32,317.73,1814.26,319.36,1818,317Z"/></g><g id="_Group_4" data-name="&lt;Group&gt;"><path class="cls-1" d="M1793.65,346.38c-3.72,2.33-5.66.7-7-.26a7.62,7.62,0,0,1,7,.26Z"/><path class="cls-1" d="M1793.65,346.38c-3.72,2.33-5.66.7-7-.26a7.62,7.62,0,0,1,7,.26Z"/></g><path class="cls-1" d="M1641.95,294.29l-.43,2.66-.36,2.2-.68,4.22-3.09,19.11a183,183,0,0,1,2.43-18.86l-.27,0h-6.48a2.77,2.77,0,0,1,0-5.4h1.63l2.38-2.69C1638.4,296,1640,295.81,1641.95,294.29Z"/><path class="cls-1" d="M1532.45,352.61c.94-1,1.88-2,2.82-3a29,29,0,0,1-.27,4l-2.52-.46S1532.47,352.92,1532.45,352.61Z"/><path class="cls-1" d="M1624.35,276.48c-.87,2.06-1.76,4.09-2.65,6.08l-16.82-23.18c.83-1.3,1.66-2.62,2.49-3.94.25-.4.5-.79.74-1.19Z"/><path class="cls-1" d="M1535.27,349.59c-.94,1-1.88,2-2.82,3-.13-2.48-.89-13.63-4-15.94,3.54,2.6,5.6,1.11,7,.25C1534.8,341,1535.33,345.37,1535.27,349.59Z"/><path class="cls-1" d="M1673.6,117.18l-33.85-7a.09.09,0,0,1,0,0,744.17,744.17,0,0,1-62.23,140.77l-3.39,5.85q-2.6,4.41-5.19,8.69.66-7.24,1.33-14.46l.88-9.55c0-.15,0-.31,0-.46l-.29.08-.05-.07h0c0-.1,0-.21,0-.31A1270,1270,0,0,1,1482,123.11,1398.45,1398.45,0,0,1,1408.68,0a436.87,436.87,0,0,1-134.14,25.6A436.06,436.06,0,0,1,1115.79.39a1478.83,1478.83,0,0,1-97.07,168c-32.47,48.4-68.84,102.77-98.76,137.65,1.2.39,4.89.39,5.52.82-.08,1.08,1.41-1.91,1.37-.82l51.75-71.63L978.09,324c17.1,0,63.06-4.2,94.64,2.57l1.63.35,84.21,10.7c18.53,2.32,88.85,12.75,102.77,16.94l62.11-3.49,4.84-.27,188.8-10.63q-8.19,10.35-16.07,19.53c0,1.53-2.93,4-2.93,4s0-.21,0-.56c-.41.49-.83,1-1.25,1.45l105.5,4.19,58,2.3,104.1,4.14c0-.18.08-.38.14-.56l2.34-.27a81.8,81.8,0,0,1,2-11.37h0a65.71,65.71,0,0,1,7.4-10.83,64.68,64.68,0,0,1,13.37-12.33,49.06,49.06,0,0,1,.24-5.53,577.2,577.2,0,0,1-55.61-77.81S1683.61,151.23,1673.6,117.18ZM1354.93,262.81q4.75.38,9.59.69C1361.3,263.29,1358.1,263.07,1354.93,262.81Zm130-4.94q7.16-1.12,14.12-2.41Q1492.11,256.75,1485,257.87Z"/><path class="cls-1" d="M1884.19,185.8a338,338,0,0,1-32.2-71.18l-21.38-4.1a416.25,416.25,0,0,1-39.81,82.67,422.65,422.65,0,0,1-40.61,54.48q3.59,5.87,7.22,11.46l49.54,1.81,36.62,1.34,65.77,2.41c0-.11.05-.22.08-.33l1.48-.16a44.79,44.79,0,0,1,1.28-6.58,38.12,38.12,0,0,1,4.69-6.34,40.14,40.14,0,0,1,8.45-7.16,27,27,0,0,1,.15-3.23A337.6,337.6,0,0,1,1884.19,185.8Zm25.56,67.56a5,5,0,0,1,2.12-.48,5.25,5.25,0,0,1,2.51.64C1911.91,255.07,1910.62,254,1909.75,253.36Z"/><path class="cls-1" d="M304.09,270.35,299.95,276c0-3.76.4-7.58-.12-11.2,1.38.86,3.43,2.35,7-.25C305.56,265.47,304.69,267.76,304.09,270.35Z"/><path class="cls-1" d="M290.44,303.64c.23,9.38,1.11,18.95.49,28.09l-3.79-.86s-.73-15.74-3-27.25l.27,0Z"/><path class="cls-1" d="M24.85,255.23q-1.38,1.52-2.76,3c-.67-4.16-2.2-11.62-4.85-13.29,3.72,2.34,5.66.7,7-.25A65.3,65.3,0,0,0,24.85,255.23Z"/><path class="cls-1" d="M227.85,183.33a635.86,635.86,0,0,0,71.5,93.5l-3.82,5.24-92,3.37-55.19,2-99.14,3.63c0-.16-.08-.33-.13-.49l.33,0c.38-5.45-1.21-11.18-.83-16.62a7.67,7.67,0,0,0-3.18-.72,7.79,7.79,0,0,0-3.78,1c1.4.88,2.49,3.39,3.3,6.17a56.85,56.85,0,0,0-7.06-9.55,60,60,0,0,0-12.74-10.8,39.56,39.56,0,0,0-.23-4.85,508.64,508.64,0,0,0,62.23-83.06A508.87,508.87,0,0,0,135.61,64.88l32.23-6.17s0,0,0,0A627.73,627.73,0,0,0,227.85,183.33Z"/><path class="cls-1" d="M939,303.35c.6-.38.78-3.44,1.92-3.78C912.39,269,878.9,224.32,848,181.89A1274.75,1274.75,0,0,1,755.54,34.62a447.76,447.76,0,0,1-151.17,22.1A447.71,447.71,0,0,1,476.63,34.28,1209.14,1209.14,0,0,1,406.77,142.2a1125.61,1125.61,0,0,1-84.54,103.08c-.06.09,0,.18,0,.27h0l-.05.06-.28-.07c0,.13,0,.27,0,.4l-37.5,57.69c-.93,4,5.84-.19,6,0l32.31-49.32q3.81,38,7.61,75.92l222.82,11.55,4.61.24,59.15,3.06c13.25-3.67,80.21-12.82,97.86-14.85L795,320.86q-.69-4.94-1.36-9.84l1.37,9.84c.51-.11,1-.22,1.55-.31,30.07-5.93,73.84-2.25,90.12-2.25l-.47-78.53,48.15,59.79C934.3,298.61,939.06,304.29,939,303.35Zm-324.16,24-1.09-9-.45-3.67-1.14-9.43c.91,7.3,1.82,14.56,2.72,22.12Zm141-288.95,6.09,44C759.38,67.1,757.39,52.4,755.84,38.44Z"/><path class="cls-1" d="M924.49,291.31c.28,7.53,1.12,15.19.48,22.51l-4.06-.71a154.81,154.81,0,0,0-3-21.8Z"/><path class="cls-1" d="M942.28,291.22c.28,9.72,1.12,19.61.48,29.06l-4.06-.92a255.43,255.43,0,0,0-3-28.15Z"/><path class="cls-1" d="M1641.16,299.15a3.12,3.12,0,0,1,.55,1.79,2.82,2.82,0,0,1-1.23,2.43Z"/><path class="cls-1" d="M1643.73,292.64a12.5,12.5,0,0,0-2.21,4.31l.43-2.66A14.49,14.49,0,0,0,1643.73,292.64Z"/></g><path class="cls-1" d="M1380.83,264.3C1318.76,279.11,1135,279,1040.52,300.21c-24.51,5.51-54,9.56-62.35,10.06-12.89.79-25.05,10.85-62.55-7.06-132.5-63.3-450.74-13.82-515.52-24.7C345.91,269.4,146.82,237.17,0,240.33V380.53H1933.4V210.92C1768.47,255.9,1639.53,202.58,1380.83,264.3Z"/></g></g></svg>